<svg width="32" height="32" viewBox="0 0 24 24" fill="none" xmlns="http://www.w3.org/2000/svg">
  <path d="M12 21C16.9706 21 21 16.9706 21 12C21 7.02944 16.9706 3 12 3C7.02944 3 3 7.02944 3 12C3 16.9706 7.02944 21 12 21Z" stroke="#6366F1" stroke-width="2" stroke-linecap="round" stroke-linejoin="round"/>
  <path d="M16 12C16 14.2091 14.2091 16 12 16C9.79086 16 8 14.2091 8 12C8 9.79086 9.79086 8 12 8C14.2091 8 16 9.79086 16 12Z" stroke="#6366F1" stroke-width="2" stroke-linecap="round" stroke-linejoin="round"/>
  <path d="M3 12H8" stroke="#6366F1" stroke-width="2" stroke-linecap="round" stroke-linejoin="round"/>
  <path d="M16 12H21" stroke="#6366F1" stroke-width="2" stroke-linecap="round" stroke-linejoin="round"/>
  <path d="M12 3V8" stroke="#6366F1" stroke-width="2" stroke-linecap="round" stroke-linejoin="round"/>
  <path d="M12 16V21" stroke="#6366F1" stroke-width="2" stroke-linecap="round" stroke-linejoin="round"/>
</svg>